<?xml version="1.0" encoding="utf-8"?>
<!-- Generator: Adobe Illustrator 17.0.0, SVG Export Plug-In . SVG Version: 6.00 Build 0)  -->
<!DOCTYPE svg PUBLIC "-//W3C//DTD SVG 1.1//EN" "http://www.w3.org/Graphics/SVG/1.1/DTD/svg11.dtd">
<svg version="1.1" xmlns="http://www.w3.org/2000/svg" xmlns:xlink="http://www.w3.org/1999/xlink" x="0px" y="0px" width="40px"
	 height="40px" viewBox="0 0 40 40" enable-background="new 0 0 40 40" xml:space="preserve">
<g id="refresh">
	<path id="upArrow" d="M-88.353,11.137c4.205-4.21,10.637-4.81,15.499-1.833c-1.649,1.629-3.546,3.534-3.546,3.534
		c-1.334,1.596,0.16,2.517,0.921,2.491h8.879c0.473,0,0.857,0,0.857,0h2.581c0.466,0,0.849-0.383,0.849-0.855V2.258
		c0.057-1.112-1.169-2.198-2.44-0.952c0,0-2.095,2.044-3.539,3.475c-7.403-5.405-17.836-4.792-24.525,1.891
		c-3.904,3.904-5.717,9.078-5.5,14.189H-92C-92.224,17.372-91.022,13.807-88.353,11.137L-88.353,11.137z M-88.353,11.137"/>
	<path id="downArrow" d="M-67.335,18.74c0.224,3.495-0.978,7.059-3.647,9.729c-4.211,4.203-10.637,4.805-15.499,1.833
		c1.648-1.629,3.546-3.532,3.546-3.532c1.328-1.598-0.167-2.517-0.921-2.491h-8.885c-0.466,0-0.85,0-0.85,0h-2.581
		c-0.473,0-0.855,0.383-0.855,0.849v12.215c-0.051,1.117,1.176,2.198,2.44,0.952c0,0,2.095-2.038,3.546-3.475
		c7.403,5.412,17.836,4.798,24.518-1.89c3.904-3.897,5.724-9.078,5.506-14.189H-67.335z M-67.335,18.74"/>
</g>
<g id="trash">
	<path id="container" d="M-18.377,14.909h-23.012c-0.368,0-0.663,0.294-0.663,0.663v21.191c0,1.83,1.481,3.311,3.311,3.311h17.715
		c1.83,0,3.311-1.481,3.311-3.311V15.572C-17.714,15.203-18.008,14.909-18.377,14.909L-18.377,14.909z M-35.263,35.441
		c0,0.73-0.592,1.322-1.326,1.322c-0.731,0-1.323-0.592-1.323-1.322V19.048c0-0.731,0.592-1.326,1.323-1.326
		c0.734,0,1.326,0.595,1.326,1.326V35.441z M-28.56,35.441c0,0.73-0.592,1.322-1.322,1.322c-0.731,0-1.326-0.592-1.326-1.322V19.048
		c0-0.731,0.595-1.326,1.326-1.326c0.73,0,1.322,0.595,1.322,1.326V35.441z M-21.853,35.441c0,0.73-0.595,1.322-1.326,1.322
		c-0.731,0-1.322-0.592-1.322-1.322V19.048c0-0.731,0.591-1.326,1.322-1.326c0.731,0,1.326,0.595,1.326,1.326V35.441z
		 M-21.853,35.441"/>
	<path id="lid" d="M-18.212,6.132h-2.564c-0.369,0-0.663-0.294-0.663-0.663V4.311C-21.439,2.484-22.923,1-24.75,1h-10.268
		c-1.824,0-3.311,1.484-3.311,3.311v1.157c0,0.369-0.294,0.663-0.659,0.663h-2.568c-1.827,0-3.311,1.484-3.311,3.311v3.147
		c0,0.365,0.297,0.663,0.663,0.663h28.641c0.369,0,0.663-0.298,0.663-0.663V9.443C-14.901,7.616-16.382,6.132-18.212,6.132
		L-18.212,6.132z M-24.087,5.469c0,0.369-0.298,0.663-0.663,0.663h-10.268c-0.365,0-0.659-0.294-0.659-0.663V4.311
		c0-0.365,0.297-0.663,0.659-0.663h10.268c0.365,0,0.663,0.298,0.663,0.663V5.469z M-24.087,5.469"/>
</g>
<g id="gear">
	<path id="cog" d="M-116.656,15.801l-0.938-2.221c0,0,2.18-4.912,1.987-5.105l-2.884-2.809c-0.202-0.191-5.113,2.045-5.113,2.045
		l-2.264-0.912c0,0-2.002-4.981-2.279-4.981h-4.066c-0.283,0-2.137,4.989-2.137,4.989l-2.262,0.921c0,0-5.013-2.137-5.206-1.944
		l-2.875,2.817c-0.202,0.191,2.088,5.004,2.088,5.004l-0.931,2.221c0,0-5.088,1.961-5.088,2.221v3.989
		c0,0.277,5.096,2.096,5.096,2.096l0.938,2.212c0,0-2.178,4.912-1.985,5.096l2.875,2.824c0.2,0.185,5.111-2.053,5.111-2.053
		l2.272,0.914c0,0,1.996,4.98,2.272,4.98h4.073c0.277,0,2.129-4.989,2.129-4.989l2.272-0.921c0,0,5.004,2.137,5.197,1.944
		l2.882-2.817c0.202-0.191-2.094-5.004-2.094-5.004l0.938-2.221c0,0,5.081-1.961,5.081-2.23v-3.981
		C-111.56,17.612-116.656,15.801-116.656,15.801L-116.656,15.801z M-124.15,19.959c0,3.21-2.665,5.815-5.942,5.815
		c-3.279,0-5.944-2.605-5.944-5.815c0-3.204,2.665-5.811,5.944-5.811C-126.815,14.148-124.15,16.755-124.15,19.959L-124.15,19.959z
		 M-124.15,19.959"/>
	<g>
		<path fill="#231F20" d="M20.009-0.293c-10.989,0-19.931,8.94-19.931,19.928c0,10.991,8.939,19.931,19.931,19.931
			c10.988,0,19.93-8.94,19.93-19.931C39.939,8.647,30.996-0.293,20.009-0.293L20.009-0.293z M20.009,37.775
			c-10.002,0-18.14-8.135-18.14-18.14c0-10.002,8.138-18.14,18.14-18.14c10.001,0,18.143,8.138,18.143,18.14
			C38.152,29.64,30.01,37.775,20.009,37.775L20.009,37.775z M20.009,37.775"/>
		<path fill="#231F20" d="M19.879,13.134c-0.738,0-1.341,0.599-1.341,1.341v15.147c0,0.742,0.603,1.345,1.341,1.345
			c0.742,0,1.341-0.603,1.341-1.345V14.475C21.221,13.733,20.621,13.134,19.879,13.134L19.879,13.134z M19.879,13.134"/>
		<path fill="#231F20" d="M21.593,9.417c0,0.899-0.731,1.627-1.63,1.627c-0.899,0-1.63-0.728-1.63-1.627
			c0-0.903,0.731-1.63,1.63-1.63C20.862,7.786,21.593,8.514,21.593,9.417L21.593,9.417z M21.593,9.417"/>
	</g>
	<g>
		<g>
			<defs>
				<rect id="SVGID_1_" x="50" y="0" width="40" height="39.247"/>
			</defs>
			<clipPath id="SVGID_2_">
				<use xlink:href="#SVGID_1_"  overflow="visible"/>
			</clipPath>
			<path clip-path="url(#SVGID_2_)" d="M72.18,39.161h-4.202c-0.634,0-0.853,0.003-3.007-5.338l-1.667-0.675
				c-4.533,2.055-5.072,2.055-5.25,2.055h-0.347l-0.297-0.252l-2.979-2.915c-0.453-0.453-0.61-0.61,1.722-5.88l-0.679-1.606
				C50,22.589,50,22.364,50,21.716v-4.121c0-0.644,0-0.848,5.457-2.958l0.678-1.609c-2.468-5.188-2.298-5.352-1.81-5.808
				l3.204-3.143l0.399-0.01c0.481,0,2.277,0.654,5.338,1.947l1.66-0.675c1.998-5.358,2.243-5.358,2.873-5.358h4.203
				c0.627,0,0.849,0,3.006,5.341l1.667,0.671c4.527-2.055,5.069-2.055,5.253-2.055h0.344l0.297,0.252l2.979,2.907
				c0.454,0.456,0.607,0.613-1.724,5.887l0.681,1.616c5.481,1.953,5.481,2.178,5.481,2.825v4.118c0,0.63,0,0.852-5.464,2.962
				l-0.675,1.613c2.455,5.164,2.291,5.327,1.834,5.791l-3.229,3.16l-0.402,0.01c-0.48,0-2.27-0.654-5.327-1.949l-1.67,0.675
				C73.049,39.161,72.824,39.161,72.18,39.161L72.18,39.161z M68.414,37.461h3.316c0.379-0.774,1.203-2.832,1.861-4.602l0.133-0.354
				l3.017-1.216l0.327,0.136c1.796,0.767,3.923,1.619,4.751,1.878l2.332-2.277c-0.297-0.821-1.193-2.829-2.004-4.52l-0.164-0.344
				l1.251-2.983l0.338-0.13c1.82-0.702,3.923-1.565,4.71-1.956v-3.201c-0.794-0.375-2.894-1.173-4.701-1.813l-0.354-0.127
				l-1.257-2.985l0.15-0.338c0.773-1.745,1.636-3.804,1.912-4.633l-2.339-2.284c-0.753,0.263-2.863,1.169-4.646,1.981l-0.331,0.153
				L73.7,6.63l-0.136-0.338c-0.712-1.779-1.599-3.845-2.001-4.608H68.25c-0.381,0.774-1.2,2.829-1.858,4.601l-0.129,0.348
				l-3.01,1.223l-0.328-0.14c-1.803-0.764-3.933-1.613-4.762-1.874l-2.327,2.28c0.292,0.818,1.193,2.825,1.997,4.517L58,12.983
				l-1.255,2.983l-0.337,0.13c-1.817,0.698-3.917,1.561-4.704,1.953v3.204c0.794,0.378,2.891,1.175,4.697,1.82l0.351,0.129
				l1.258,2.972l-0.15,0.338c-0.774,1.742-1.633,3.801-1.909,4.626l2.339,2.291c0.753-0.263,2.86-1.169,4.642-1.981l0.334-0.153
				l3.013,1.223l0.134,0.334C67.132,34.635,68.015,36.697,68.414,37.461L68.414,37.461z M69.991,26.427
				c-3.852,0-6.991-3.074-6.991-6.854s3.136-6.855,6.991-6.855c3.852,0,6.984,3.075,6.984,6.855S73.843,26.427,69.991,26.427
				L69.991,26.427z M69.991,14.419c-2.918,0-5.286,2.311-5.286,5.154c0,2.839,2.368,5.154,5.286,5.154
				c2.914,0,5.284-2.314,5.284-5.154C75.275,16.729,72.906,14.419,69.991,14.419L69.991,14.419z M69.991,14.419"/>
		</g>
	</g>
</g>
</svg>
