<?xml version="1.0" encoding="utf-8"?>
<!-- Generator: Adobe Illustrator 18.0.0, SVG Export Plug-In . SVG Version: 6.00 Build 0)  -->
<!DOCTYPE svg PUBLIC "-//W3C//DTD SVG 1.1//EN" "http://www.w3.org/Graphics/SVG/1.1/DTD/svg11.dtd">
<svg version="1.1" id="logo" xmlns="http://www.w3.org/2000/svg" xmlns:xlink="http://www.w3.org/1999/xlink" x="0px" y="0px"
	 viewBox="0 0 250 146" enable-background="new 0 0 250 146" xml:space="preserve">
<g id="back">
	<path fill="#CC071E" d="M195.2,81.6c0,2.3-1.8,4.1-4.1,4.1H58.9c-2.3,0-4.1-1.8-4.1-4.1v-34c0-2.3,1.8-4.1,4.1-4.1h132.2
		c2.3,0,4.1,1.8,4.1,4.1V81.6z"/>
</g>
<path id="url" fill="#CC071E" d="M57.7,91.1l0.8,3.6c0.2,0.9,0.4,1.7,0.5,2.6h0c0.2-0.9,0.4-1.8,0.6-2.6l1.1-3.7h1.6l1,3.6
	c0.2,0.9,0.5,1.8,0.6,2.7h0c0.1-0.9,0.3-1.7,0.5-2.7l0.9-3.6h2l-2.5,8h-1.9l-1-3.3c-0.2-0.8-0.4-1.6-0.6-2.6h0
	c-0.2,1-0.4,1.8-0.6,2.6l-1,3.3H58l-2.4-8H57.7z M70.3,91.1l0.8,3.6c0.2,0.9,0.4,1.7,0.5,2.6h0c0.2-0.9,0.4-1.8,0.6-2.6l1.1-3.7H75
	l1,3.6c0.2,0.9,0.5,1.8,0.6,2.7h0c0.1-0.9,0.3-1.7,0.5-2.7l0.9-3.6h2l-2.5,8h-1.9l-1-3.3c-0.2-0.8-0.4-1.6-0.6-2.6h0
	c-0.2,1-0.4,1.8-0.6,2.6l-1,3.3h-1.9l-2.4-8H70.3z M82.8,91.1l0.8,3.6c0.2,0.9,0.4,1.7,0.5,2.6h0c0.2-0.9,0.4-1.8,0.6-2.6l1.1-3.7
	h1.6l1,3.6c0.2,0.9,0.5,1.8,0.6,2.7h0c0.1-0.9,0.3-1.7,0.5-2.7l0.9-3.6h2l-2.5,8h-1.9l-1-3.3c-0.2-0.8-0.4-1.6-0.6-2.6h0
	c-0.2,1-0.4,1.8-0.6,2.6l-1,3.3h-1.9l-2.4-8H82.8z M92.8,98c0-0.8,0.5-1.3,1.3-1.3c0.7,0,1.3,0.5,1.3,1.3c0,0.7-0.5,1.3-1.3,1.3
	C93.3,99.3,92.8,98.7,92.8,98z M103.3,97.2c0,0.7,0,1.4,0.1,1.9h-1.8l-0.1-0.9h0c-0.5,0.6-1.3,1.1-2.4,1.1c-1.6,0-2.5-1.2-2.5-2.4
	c0-2,1.8-3,4.8-3v-0.1c0-0.5-0.2-1.4-1.6-1.4c-0.8,0-1.6,0.2-2.2,0.6l-0.4-1.3c0.6-0.4,1.6-0.7,2.9-0.7c2.6,0,3.3,1.6,3.3,3.4V97.2z
	 M101.3,95.2c-1.4,0-2.8,0.3-2.8,1.5c0,0.8,0.5,1.2,1.2,1.2c0.8,0,1.4-0.5,1.6-1.1c0-0.1,0-0.3,0-0.4V95.2z M106.1,91.1l1.3,4.1
	c0.2,0.7,0.4,1.3,0.5,2h0c0.1-0.7,0.3-1.3,0.5-2l1.3-4.1h2.1l-3.1,8h-2l-3-8H106.1z M113,93.5c0-0.9,0-1.7-0.1-2.4h1.7l0.1,1.2h0
	c0.4-0.6,1.1-1.4,2.5-1.4c1.1,0,1.9,0.6,2.2,1.5h0c0.3-0.4,0.6-0.8,1-1c0.5-0.3,1-0.5,1.6-0.5c1.3,0,2.7,0.9,2.7,3.5v4.7h-2v-4.4
	c0-1.3-0.5-2.1-1.4-2.1c-0.7,0-1.2,0.5-1.4,1.1c-0.1,0.2-0.1,0.4-0.1,0.7v4.8h-2v-4.6c0-1.1-0.4-1.9-1.4-1.9c-0.8,0-1.3,0.6-1.5,1.1
	c-0.1,0.2-0.1,0.4-0.1,0.7v4.7h-2V93.5z M130.5,94v1.4h-4.2V94H130.5z M131.9,93.5c0-0.9,0-1.7-0.1-2.4h1.7l0.1,1.2h0
	c0.4-0.6,1.1-1.4,2.5-1.4c1.1,0,1.9,0.6,2.2,1.5h0c0.3-0.4,0.6-0.8,1-1c0.5-0.3,1-0.5,1.6-0.5c1.3,0,2.7,0.9,2.7,3.5v4.7h-2v-4.4
	c0-1.3-0.5-2.1-1.4-2.1c-0.7,0-1.2,0.5-1.4,1.1c-0.1,0.2-0.1,0.4-0.1,0.7v4.8h-2v-4.6c0-1.1-0.4-1.9-1.4-1.9c-0.8,0-1.3,0.6-1.5,1.1
	c-0.1,0.2-0.1,0.4-0.1,0.7v4.7h-2V93.5z M151.9,97.2c0,0.7,0,1.4,0.1,1.9h-1.8l-0.1-0.9h0c-0.5,0.6-1.3,1.1-2.4,1.1
	c-1.6,0-2.5-1.2-2.5-2.4c0-2,1.8-3,4.8-3v-0.1c0-0.5-0.2-1.4-1.6-1.4c-0.8,0-1.6,0.2-2.2,0.6l-0.4-1.3c0.6-0.4,1.6-0.7,2.9-0.7
	c2.6,0,3.3,1.6,3.3,3.4V97.2z M149.9,95.2c-1.4,0-2.8,0.3-2.8,1.5c0,0.8,0.5,1.2,1.2,1.2c0.8,0,1.4-0.5,1.6-1.1c0-0.1,0-0.3,0-0.4
	V95.2z M161,97.9c0,1.7-0.3,2.9-1.2,3.6c-0.8,0.7-2,1-3.1,1c-1,0-2.1-0.2-2.8-0.6l0.4-1.5c0.5,0.3,1.4,0.6,2.3,0.6
	c1.3,0,2.3-0.7,2.3-2.4v-0.7h0c-0.5,0.7-1.3,1.2-2.3,1.2c-2,0-3.4-1.6-3.4-3.9c0-2.6,1.7-4.2,3.6-4.2c1.2,0,1.9,0.6,2.3,1.3h0
	l0.1-1.1h1.8c0,0.5-0.1,1.2-0.1,2.3V97.9z M159,94.3c0-0.2,0-0.4-0.1-0.5c-0.2-0.7-0.8-1.3-1.6-1.3c-1.1,0-2,1-2,2.6
	c0,1.4,0.7,2.5,2,2.5c0.8,0,1.4-0.5,1.6-1.2c0.1-0.2,0.1-0.5,0.1-0.7V94.3z M162.7,98c0-0.8,0.5-1.3,1.3-1.3c0.7,0,1.3,0.5,1.3,1.3
	c0,0.7-0.5,1.3-1.3,1.3C163.2,99.3,162.7,98.7,162.7,98z M172.4,98.8c-0.4,0.2-1.3,0.4-2.3,0.4c-2.5,0-4.1-1.6-4.1-4.1
	c0-2.4,1.6-4.3,4.5-4.3c0.7,0,1.5,0.2,2,0.4l-0.4,1.5c-0.3-0.2-0.8-0.3-1.5-0.3c-1.5,0-2.5,1.1-2.5,2.6c0,1.6,1.1,2.6,2.5,2.6
	c0.7,0,1.2-0.1,1.6-0.3L172.4,98.8z M181.1,95c0,2.9-2.1,4.3-4.1,4.3c-2.3,0-4-1.5-4-4.1c0-2.6,1.7-4.2,4.1-4.2
	C179.5,90.9,181.1,92.6,181.1,95z M175.1,95.1c0,1.5,0.8,2.7,2,2.7c1.2,0,2-1.1,2-2.7c0-1.3-0.6-2.7-1.9-2.7
	C175.7,92.4,175.1,93.7,175.1,95.1z M182.5,93.5c0-0.9,0-1.7-0.1-2.4h1.7l0.1,1.2h0c0.4-0.6,1.1-1.4,2.5-1.4c1.1,0,1.9,0.6,2.2,1.5
	h0c0.3-0.4,0.6-0.8,1-1c0.5-0.3,1-0.5,1.6-0.5c1.3,0,2.7,0.9,2.7,3.5v4.7h-2v-4.4c0-1.3-0.5-2.1-1.4-2.1c-0.7,0-1.2,0.5-1.4,1.1
	c-0.1,0.2-0.1,0.4-0.1,0.7v4.8h-2v-4.6c0-1.1-0.4-1.9-1.4-1.9c-0.8,0-1.3,0.6-1.5,1.1c-0.1,0.2-0.1,0.4-0.1,0.7v4.7h-2V93.5z"/>
<path id="maintenance" fill="#FFFFFF" d="M70.5,74.7c-0.1-1.8-0.2-4.1-0.2-6h-0.1c-0.5,1.8-1.1,3.7-1.7,5.5l-2.1,6.2h-2l-1.9-6.1
	c-0.5-1.8-1.1-3.8-1.4-5.6h0c-0.1,1.9-0.1,4.1-0.3,6.1l-0.3,5.7h-2.4l1-14.2h3.4l1.9,5.7c0.5,1.7,1,3.4,1.3,4.9h0.1
	c0.4-1.5,0.9-3.3,1.4-5l2-5.7h3.4l0.8,14.2h-2.5L70.5,74.7z M78.7,76.4l-1.2,4h-2.7l4.6-14.2h3.3l4.6,14.2h-2.8l-1.3-4H78.7z
	 M82.8,74.5L81.7,71c-0.3-0.9-0.5-1.8-0.7-2.7h0c-0.2,0.8-0.4,1.8-0.7,2.7l-1.1,3.5H82.8z M91.5,66.2v14.2h-2.6V66.2H91.5z
	 M94.4,80.5V66.2h3l3.7,6.1c1,1.6,1.8,3.2,2.4,4.8h0c-0.2-1.9-0.2-3.7-0.2-5.9v-5h2.4v14.2H103l-3.7-6.3c-0.9-1.5-1.9-3.3-2.6-4.9
	l-0.1,0c0.1,1.8,0.1,3.7,0.1,6.1v5.1H94.4z M111.2,68.4h-4.1v-2.2h10.8v2.2h-4.1v12.1h-2.6V68.4z M127.3,74.1h-5.4v4.2h6v2.1h-8.6
	V66.2h8.3v2.1h-5.7V72h5.4V74.1z M130.1,80.5V66.2h3l3.7,6.1c1,1.6,1.8,3.2,2.4,4.8h0c-0.2-1.9-0.2-3.7-0.2-5.9v-5h2.4v14.2h-2.7
	l-3.7-6.3c-0.9-1.5-1.9-3.3-2.6-4.9l-0.1,0c0.1,1.8,0.1,3.7,0.1,6.1v5.1H130.1z M146.9,76.4l-1.2,4H143l4.6-14.2h3.3l4.6,14.2h-2.8
	l-1.3-4H146.9z M151,74.5l-1.1-3.5c-0.3-0.9-0.5-1.8-0.7-2.7h0c-0.2,0.8-0.4,1.8-0.7,2.7l-1.1,3.5H151z M157.1,80.5V66.2h3l3.7,6.1
	c1,1.6,1.8,3.2,2.4,4.8h0c-0.2-1.9-0.2-3.7-0.2-5.9v-5h2.4v14.2h-2.7l-3.7-6.3c-0.9-1.5-1.9-3.3-2.6-4.9l-0.1,0
	c0.1,1.8,0.1,3.7,0.1,6.1v5.1H157.1z M181.4,80c-0.6,0.3-2,0.7-3.7,0.7c-4.5,0-7.3-2.9-7.3-7.2c0-4.7,3.3-7.5,7.6-7.5
	c1.7,0,2.9,0.4,3.5,0.6l-0.6,2.1c-0.7-0.3-1.6-0.5-2.8-0.5c-2.9,0-5,1.8-5,5.2c0,3.1,1.8,5.1,5,5.1c1.1,0,2.2-0.2,2.8-0.5L181.4,80z
	 M191.2,74.1h-5.4v4.2h6v2.1h-8.6V66.2h8.3v2.1h-5.7V72h5.4V74.1z"/>
<path id="aviation" fill="#FFFFFF" d="M114.8,57.6l-1.8,5h-1l5.2-14.2h1l5.1,14.2h-1l-1.8-5H114.8z M120.1,56.8l-1.7-4.8
	c-0.3-1-0.5-1.7-0.7-2.5h0c-0.2,0.8-0.4,1.6-0.7,2.5l-1.8,4.8H120.1z M89.2,57.6l-1.8,5h-1l5.2-14.2h1l5.1,14.2h-1l-1.8-5H89.2z
	 M94.5,56.8L92.8,52c-0.3-1-0.5-1.7-0.7-2.5h0c-0.2,0.8-0.4,1.6-0.7,2.5l-1.8,4.8H94.5z M101.5,62.6l-4.7-14.2h1.1l2.5,7.6
	c0.7,2.1,1.3,3.9,1.7,5.5h0.1c0.4-1.6,1.1-3.4,1.8-5.5l2.8-7.6h1.1l-5.3,14.2H101.5z M110.2,48.4v14.2h-1V48.4H110.2z M126.3,49.2
	h-4.6v-0.8h10.3v0.8h-4.6v13.4h-1V49.2z M134.4,48.4v14.2h-1V48.4H134.4z M149.2,55.4c0,5-3.1,7.5-6.4,7.5c-3.5,0-6.2-2.8-6.2-7.2
	c0-4.7,2.8-7.5,6.4-7.5C146.6,48.2,149.2,50.9,149.2,55.4z M137.7,55.6c0,3.2,1.9,6.4,5.2,6.4c3.4,0,5.3-3.1,5.3-6.6
	c0-3-1.6-6.4-5.2-6.4C139.3,49,137.7,52.3,137.7,55.6z M151.5,62.6V48.4h1l5.6,8.4c1.1,1.8,2,3.1,2.7,4.5l0,0
	c-0.1-1.9-0.2-3.5-0.2-5.8v-7.1h1v14.2h-0.9l-5.4-8.3c-1.1-1.6-2-3.1-2.8-4.6l0,0c0.1,1.8,0.1,3.3,0.1,5.7v7.2H151.5z"/>
</svg>
