<?xml version="1.0" encoding="utf-8"?>
<!-- Generator: Adobe Illustrator 17.0.0, SVG Export Plug-In . SVG Version: 6.00 Build 0)  -->
<!DOCTYPE svg PUBLIC "-//W3C//DTD SVG 1.1//EN" "http://www.w3.org/Graphics/SVG/1.1/DTD/svg11.dtd">
<svg version="1.1" id="Layer_1" xmlns="http://www.w3.org/2000/svg" xmlns:xlink="http://www.w3.org/1999/xlink" x="0px" y="0px"
	 width="768px" height="88px" viewBox="0 0 768 88" enable-background="new 0 0 768 88" xml:space="preserve">
<g id="logo">
	<g>
		<g>
			<path fill="#55565A" d="M455.13,60.321c0,3.849-3.149,6.999-6.999,6.999H319.825c-3.849,0-6.999-3.149-6.999-6.999V8.999
				c0-3.849,3.149-6.999,6.999-6.999h128.307c3.849,0,6.999,3.149,6.999,6.999V60.321z"/>
		</g>
		<g>
			<path fill="#FFFFFF" d="M324.255,8.998h6.229l7.532,18.804h-6.605l-0.869-2.686h-6.576l-0.927,2.686h-6.403L324.255,8.998z
				 M329.267,21.086l-1.854-5.794h-0.057l-1.999,5.794H329.267z"/>
			<path fill="#FFFFFF" d="M348.693,27.802h-7.126l-6.171-18.804h6.431l3.389,11.403h0.058l3.331-11.403h6.547L348.693,27.802z"/>
			<path fill="#FFFFFF" d="M355.741,8.998h6.373v18.804h-6.373V8.998z"/>
			<path fill="#FFFFFF" d="M370.445,8.998h6.229l7.532,18.804H377.6l-0.869-2.686h-6.576l-0.927,2.686h-6.403L370.445,8.998z
				 M375.457,21.086l-1.854-5.794h-0.057l-1.999,5.794H375.457z"/>
			<path fill="#FFFFFF" d="M387.368,13.818h-5.794V8.998h17.961v4.819h-5.793v13.984h-6.374V13.818z"/>
			<path fill="#FFFFFF" d="M400.697,8.998h6.373v18.804h-6.373V8.998z"/>
			<path fill="#FFFFFF" d="M429.289,8.998h6.518l6.025,10.06h0.058V8.998h6.025v18.804h-6.199l-6.344-10.271h-0.058v10.271h-6.025
				V8.998z"/>
		</g>
		<g>
			<path fill="#82BC00" d="M319.45,44.438c-0.084,3.75,2.89,4.899,6.539,4.899c2.105,0,5.304-1.046,5.304-3.699
				c0-2.067-2.273-2.883-4.125-3.291l-4.462-0.995c-2.358-0.536-4.518-1.556-4.518-4.388c0-1.786,1.263-5.128,6.904-5.128
				c3.957,0,7.437,1.939,7.409,5.664h-1.908c-0.113-2.781-2.638-4.184-5.473-4.184c-2.61,0-5.024,0.919-5.024,3.622
				c0,1.71,1.404,2.424,3.031,2.781l4.883,1.097c2.835,0.689,5.192,1.811,5.192,4.796c0,1.25-0.561,5.204-7.661,5.204
				c-4.742,0-8.222-1.939-7.998-6.378H319.45z"/>
			<path fill="#82BC00" d="M336.456,32.218h13.835v1.479h-11.927v6.582h11.17v1.48h-11.17v7.194h12.067v1.48h-13.976V32.218z"/>
			<path fill="#82BC00" d="M367.645,37.729c-0.673-2.806-3.227-4.413-6.146-4.413c-5.304,0-7.549,4.031-7.549,8.01
				c0,3.98,2.245,8.011,7.549,8.011c3.704,0,6.062-2.602,6.427-5.842h1.908c-0.533,4.464-3.648,7.322-8.335,7.322
				c-6.314,0-9.457-4.516-9.457-9.491s3.143-9.49,9.457-9.49c3.789,0,7.549,2.067,8.054,5.893H367.645z"/>
			<path fill="#82BC00" d="M372.694,32.218h1.908v11.276c-0.028,4.235,2.189,5.842,5.865,5.842c3.704,0,5.922-1.607,5.893-5.842
				V32.218h1.908v11.659c0,3.75-2.217,6.939-7.802,6.939c-5.556,0-7.773-3.189-7.773-6.939V32.218z"/>
			<path fill="#82BC00" d="M392.39,32.218h9.176c3.312,0,6.09,1.454,6.09,4.745c0,2.296-1.319,4.184-3.901,4.643v0.051
				c2.61,0.306,3.368,1.939,3.508,4.107c0.084,1.25,0.084,3.75,0.926,4.669h-2.105c-0.477-0.714-0.477-2.067-0.533-2.832
				c-0.168-2.551-0.393-5.383-4.013-5.256h-7.241v8.087h-1.908V32.218z M394.298,40.867h7.128c2.329,0,4.322-1.326,4.322-3.546
				c0-2.219-1.459-3.623-4.322-3.623h-7.128V40.867z"/>
			<path fill="#82BC00" d="M411.442,32.218h1.908v18.216h-1.908V32.218z"/>
			<path fill="#82BC00" d="M415.581,32.218h15.884v1.479h-6.988v16.736h-1.908V33.698h-6.988V32.218z"/>
			<path fill="#82BC00" d="M440.391,42.933l-7.886-10.715h2.273l6.595,9.236l6.567-9.236h2.273l-7.914,10.715v7.501h-1.908V42.933z"
				/>
		</g>
		<g>
			<path fill="#A6A6A8" d="M319.009,55.139h0.86v5.876h-0.86V55.139z"/>
			<path fill="#A6A6A8" d="M326.319,55.139h0.915l3.404,4.765h0.018v-4.765h0.815v5.876h-0.941l-3.377-4.715h-0.018v4.715h-0.815
				V55.139z"/>
			<path fill="#A6A6A8" d="M339.38,55.797h-2.154v-0.658h5.169v0.658h-2.155v5.218h-0.86V55.797z"/>
			<path fill="#A6A6A8" d="M348.155,55.139h4.463v0.658h-3.603v1.868h3.359v0.658h-3.359v2.033h3.63v0.659h-4.49V55.139z"/>
			<path fill="#A6A6A8" d="M358.659,55.139h3.042c1.213,0,1.964,0.601,1.964,1.539c0,0.708-0.344,1.292-1.123,1.49v0.016
				c0.751,0.132,0.905,0.634,0.968,1.21c0.055,0.576,0.018,1.218,0.381,1.621h-0.96c-0.245-0.239-0.109-0.873-0.235-1.448
				c-0.09-0.576-0.245-1.061-1.077-1.061h-2.101v2.51h-0.86V55.139z M361.311,57.847c0.806,0,1.494-0.189,1.494-1.045
				c0-0.576-0.344-1.004-1.149-1.004h-2.137v2.049H361.311z"/>
			<path fill="#A6A6A8" d="M369.92,55.139h0.914l3.404,4.765h0.018v-4.765h0.815v5.876h-0.941l-3.377-4.715h-0.018v4.715h-0.815
				V55.139z"/>
			<path fill="#A6A6A8" d="M383.313,55.139h0.951l2.526,5.876h-0.951l-0.706-1.769h-2.734l-0.724,1.769h-0.887L383.313,55.139z
				 M382.67,58.587h2.191l-1.078-2.741h-0.018L382.67,58.587z"/>
			<path fill="#A6A6A8" d="M393.239,55.797h-2.154v-0.658h5.169v0.658h-2.155v5.218h-0.86V55.797z"/>
			<path fill="#A6A6A8" d="M402.032,55.139h0.86v5.876h-0.86V55.139z"/>
			<path fill="#A6A6A8" d="M412.095,54.999c2.055,0,3.096,1.482,3.096,3.078c0,1.596-1.041,3.078-3.096,3.078
				c-2.055,0-3.096-1.482-3.096-3.078C408.999,56.481,410.04,54.999,412.095,54.999z M412.095,60.497
				c1.575,0,2.236-1.235,2.236-2.42c0-1.185-0.661-2.42-2.236-2.42c-1.575,0-2.236,1.235-2.236,2.42
				C409.859,59.262,410.52,60.497,412.095,60.497z"/>
			<path fill="#A6A6A8" d="M421.281,55.139h0.914l3.404,4.765h0.018v-4.765h0.815v5.876h-0.941l-3.377-4.715h-0.018v4.715h-0.815
				V55.139z"/>
			<path fill="#A6A6A8" d="M434.673,55.139h0.951l2.526,5.876h-0.951l-0.706-1.769h-2.734l-0.724,1.769h-0.887L434.673,55.139z
				 M434.031,58.587h2.191l-1.078-2.741h-0.018L434.031,58.587z"/>
			<path fill="#A6A6A8" d="M443.87,55.139h0.86v5.218h3.422v0.659h-4.282V55.139z"/>
		</g>
		<g>
			
				<circle fill="none" stroke="#96BD0D" stroke-width="0.823" stroke-linecap="round" stroke-linejoin="round" cx="417.805" cy="18.218" r="10.638"/>
			
				<circle fill="none" stroke="#96BD0D" stroke-width="0.823" stroke-linecap="round" stroke-linejoin="round" cx="417.805" cy="18.218" r="9.002"/>
			
				<line fill="none" stroke="#96BD0D" stroke-width="0.823" stroke-linecap="round" stroke-linejoin="round" x1="405.043" y1="18.218" x2="409.841" y2="18.218"/>
			
				<line fill="none" stroke="#96BD0D" stroke-width="0.823" stroke-linecap="round" stroke-linejoin="round" x1="417.805" y1="30.98" x2="417.805" y2="26.183"/>
			
				<line fill="none" stroke="#96BD0D" stroke-width="0.823" stroke-linecap="round" stroke-linejoin="round" x1="430.567" y1="18.218" x2="425.769" y2="18.218"/>
			
				<line fill="none" stroke="#96BD0D" stroke-width="0.823" stroke-linecap="round" stroke-linejoin="round" x1="417.805" y1="5.457" x2="417.805" y2="10.255"/>
		</g>
	</g>
	<g>
		<path fill="#55565A" d="M312.881,72.973h1.992l1.662,6.353h0.033l1.597-6.353h1.893l1.531,6.353h0.033l1.728-6.353h1.909
			l-2.667,8.509h-1.926l-1.58-6.32h-0.033l-1.563,6.32h-1.975L312.881,72.973z"/>
		<path fill="#55565A" d="M325.851,72.973h1.992l1.662,6.353h0.033l1.597-6.353h1.893l1.531,6.353h0.033l1.728-6.353h1.909
			l-2.667,8.509h-1.926l-1.58-6.32h-0.033l-1.564,6.32h-1.975L325.851,72.973z"/>
		<path fill="#55565A" d="M338.821,72.973h1.992l1.663,6.353h0.033l1.597-6.353h1.893l1.531,6.353h0.033l1.728-6.353h1.909
			l-2.667,8.509h-1.926l-1.58-6.32h-0.033l-1.563,6.32h-1.975L338.821,72.973z"/>
		<path fill="#55565A" d="M351.809,79.26h2.288v2.222h-2.288V79.26z"/>
		<path fill="#55565A" d="M363.528,79.59c0,0.461,0.099,0.642,0.445,0.642c0.115,0,0.263,0,0.461-0.033v1.3
			c-0.28,0.099-0.872,0.214-1.185,0.214c-0.757,0-1.301-0.263-1.449-1.037c-0.741,0.724-1.942,1.037-2.946,1.037
			c-1.531,0-2.913-0.823-2.913-2.485c0-2.123,1.695-2.469,3.275-2.65c1.35-0.247,2.551-0.099,2.551-1.201
			c0-0.971-1.004-1.152-1.761-1.152c-1.053,0-1.794,0.428-1.876,1.35h-1.876c0.131-2.189,1.991-2.831,3.868-2.831
			c1.662,0,3.407,0.675,3.407,2.469V79.59z M361.651,77.219c-0.576,0.378-1.481,0.362-2.304,0.51
			c-0.807,0.131-1.531,0.428-1.531,1.416c0,0.839,1.07,1.086,1.728,1.086c0.823,0,2.107-0.428,2.107-1.613V77.219z"/>
		<path fill="#55565A" d="M367.132,78.75c0.099,1.087,0.922,1.482,1.926,1.482c0.708,0,1.942-0.148,1.893-1.119
			c-0.049-0.987-1.416-1.103-2.782-1.416c-1.383-0.296-2.732-0.79-2.732-2.518c0-1.86,2.008-2.436,3.555-2.436
			c1.745,0,3.325,0.724,3.555,2.617h-1.959c-0.164-0.889-0.905-1.135-1.728-1.135c-0.543,0-1.547,0.131-1.547,0.872
			c0,0.922,1.383,1.053,2.765,1.366c1.366,0.313,2.749,0.807,2.749,2.486c0,2.024-2.041,2.765-3.802,2.765
			c-2.14,0-3.736-0.955-3.769-2.963H367.132z"/>
		<path fill="#55565A" d="M374.474,69.73h1.876v1.778h-1.876V69.73z M374.474,72.973h1.876v8.509h-1.876V72.973z"/>
		<path fill="#55565A" d="M378.374,76.116h4.79v1.778h-4.79V76.116z"/>
		<path fill="#55565A" d="M385.123,72.973h1.778v1.185h0.049c0.56-0.839,1.268-1.416,2.617-1.416c1.037,0,2.008,0.444,2.386,1.416
			c0.626-0.873,1.432-1.416,2.667-1.416c1.794,0,2.847,0.79,2.847,2.864v5.876h-1.876v-4.971c0-1.35-0.083-2.288-1.548-2.288
			c-1.267,0-1.81,0.839-1.81,2.271v4.987h-1.877v-5.464c0-1.169-0.362-1.794-1.498-1.794c-0.971,0-1.86,0.79-1.86,2.206v5.053
			h-1.876V72.973z"/>
		<path fill="#55565A" d="M406.733,79.59c0,0.461,0.099,0.642,0.444,0.642c0.115,0,0.263,0,0.461-0.033v1.3
			c-0.28,0.099-0.872,0.214-1.185,0.214c-0.757,0-1.3-0.263-1.448-1.037c-0.741,0.724-1.943,1.037-2.947,1.037
			c-1.531,0-2.913-0.823-2.913-2.485c0-2.123,1.695-2.469,3.275-2.65c1.35-0.247,2.551-0.099,2.551-1.201
			c0-0.971-1.004-1.152-1.761-1.152c-1.053,0-1.794,0.428-1.876,1.35h-1.877c0.132-2.189,1.992-2.831,3.868-2.831
			c1.662,0,3.407,0.675,3.407,2.469V79.59z M404.857,77.219c-0.576,0.378-1.482,0.362-2.304,0.51
			c-0.807,0.131-1.531,0.428-1.531,1.416c0,0.839,1.07,1.086,1.728,1.086c0.823,0,2.107-0.428,2.107-1.613V77.219z"/>
		<path fill="#55565A" d="M416.79,81.038c0,2.551-1.498,3.819-4.18,3.819c-1.712,0-3.638-0.658-3.802-2.65h1.876
			c0.231,1.069,1.087,1.251,2.041,1.251c1.514,0,2.189-0.774,2.189-2.173v-1.3h-0.033c-0.527,0.938-1.498,1.498-2.552,1.498
			c-2.699,0-3.818-2.041-3.818-4.477c0-2.288,1.432-4.263,3.851-4.263c1.07,0,2.041,0.444,2.518,1.399h0.033v-1.168h1.876V81.038z
			 M414.914,77.038c0-1.465-0.658-2.815-2.288-2.815c-1.662,0-2.238,1.547-2.238,2.963c0,1.399,0.675,2.815,2.238,2.815
			C414.288,80.001,414.914,78.487,414.914,77.038z"/>
		<path fill="#55565A" d="M418.996,79.26h2.288v2.222h-2.288V79.26z"/>
		<path fill="#55565A" d="M429.333,75.82c-0.148-1.037-0.905-1.596-1.942-1.596c-0.971,0-2.338,0.51-2.338,3.094
			c0,1.416,0.626,2.913,2.255,2.913c1.086,0,1.843-0.724,2.025-1.942h1.876c-0.346,2.206-1.711,3.423-3.901,3.423
			c-2.667,0-4.131-1.893-4.131-4.394c0-2.568,1.399-4.576,4.197-4.576c1.975,0,3.654,0.988,3.835,3.078H429.333z"/>
		<path fill="#55565A" d="M432.509,77.219c0-2.601,1.564-4.477,4.296-4.477c2.732,0,4.296,1.877,4.296,4.477
			c0,2.617-1.564,4.493-4.296,4.493C434.073,81.712,432.509,79.836,432.509,77.219z M439.225,77.219
			c0-1.465-0.741-2.995-2.419-2.995c-1.679,0-2.42,1.53-2.42,2.995c0,1.481,0.741,3.012,2.42,3.012
			C438.484,80.231,439.225,78.7,439.225,77.219z"/>
		<path fill="#55565A" d="M442.829,72.973h1.778v1.185h0.049c0.56-0.839,1.267-1.416,2.617-1.416c1.037,0,2.008,0.444,2.386,1.416
			c0.626-0.873,1.432-1.416,2.667-1.416c1.794,0,2.847,0.79,2.847,2.864v5.876h-1.876v-4.971c0-1.35-0.083-2.288-1.548-2.288
			c-1.267,0-1.81,0.839-1.81,2.271v4.987h-1.877v-5.464c0-1.169-0.362-1.794-1.498-1.794c-0.971,0-1.86,0.79-1.86,2.206v5.053
			h-1.877V72.973z"/>
	</g>
</g>
</svg>
