<?xml version="1.0" encoding="utf-8"?>
<!-- Generator: Adobe Illustrator 17.0.0, SVG Export Plug-In . SVG Version: 6.00 Build 0)  -->
<!DOCTYPE svg PUBLIC "-//W3C//DTD SVG 1.1//EN" "http://www.w3.org/Graphics/SVG/1.1/DTD/svg11.dtd">
<svg version="1.1" id="Layer_1" xmlns="http://www.w3.org/2000/svg" xmlns:xlink="http://www.w3.org/1999/xlink" x="0px" y="0px"
	 width="320px" height="44px" viewBox="0 0 320 44" enable-background="new 0 0 320 44" xml:space="preserve">
<g id="logo">
	<g>
		<g>
			<path fill="#55565A" d="M195.977,30.499c0,1.947-1.593,3.54-3.54,3.54h-64.897c-1.947,0-3.54-1.593-3.54-3.54V4.54
				c0-1.947,1.593-3.54,3.54-3.54h64.897c1.947,0,3.54,1.593,3.54,3.54V30.499z"/>
		</g>
		<g>
			<path fill="#FFFFFF" d="M129.781,4.54h3.15l3.809,9.511H133.4l-0.44-1.359h-3.326l-0.469,1.359h-3.238L129.781,4.54z
				 M132.316,10.654l-0.938-2.931h-0.029l-1.011,2.931H132.316z"/>
			<path fill="#FFFFFF" d="M142.142,14.05h-3.604l-3.121-9.511h3.253l1.714,5.768h0.029l1.685-5.768h3.312L142.142,14.05z"/>
			<path fill="#FFFFFF" d="M145.707,4.54h3.224v9.511h-3.224V4.54z"/>
			<path fill="#FFFFFF" d="M153.144,4.54h3.15l3.809,9.511h-3.341l-0.44-1.359h-3.326l-0.469,1.359h-3.238L153.144,4.54z
				 M155.679,10.654l-0.938-2.931h-0.029l-1.011,2.931H155.679z"/>
			<path fill="#FFFFFF" d="M161.704,6.977h-2.931V4.54h9.085v2.438h-2.93v7.073h-3.224V6.977z"/>
			<path fill="#FFFFFF" d="M168.445,4.54h3.224v9.511h-3.224V4.54z"/>
			<path fill="#FFFFFF" d="M182.907,4.54h3.297l3.048,5.089h0.029V4.54h3.048v9.511h-3.136l-3.209-5.195h-0.029v5.195h-3.048V4.54z"
				/>
		</g>
		<g>
			<path fill="#82BC00" d="M127.351,22.465c-0.043,1.897,1.462,2.478,3.307,2.478c1.065,0,2.683-0.529,2.683-1.871
				c0-1.045-1.15-1.458-2.087-1.665l-2.257-0.503c-1.192-0.271-2.285-0.787-2.285-2.22c0-0.903,0.639-2.594,3.492-2.594
				c2.001,0,3.762,0.981,3.747,2.865h-0.965c-0.057-1.407-1.335-2.116-2.768-2.116c-1.32,0-2.541,0.465-2.541,1.832
				c0,0.865,0.71,1.226,1.533,1.407l2.47,0.555c1.434,0.348,2.626,0.916,2.626,2.426c0,0.632-0.284,2.632-3.875,2.632
				c-2.399,0-4.159-0.981-4.045-3.226H127.351z"/>
			<path fill="#82BC00" d="M135.953,16.284h6.998v0.748h-6.033v3.329h5.65v0.749h-5.65v3.639h6.104v0.749h-7.069V16.284z"/>
			<path fill="#82BC00" d="M151.728,19.071c-0.341-1.419-1.632-2.232-3.109-2.232c-2.683,0-3.818,2.039-3.818,4.052
				c0,2.013,1.136,4.052,3.818,4.052c1.874,0,3.066-1.316,3.251-2.955h0.965c-0.27,2.258-1.845,3.704-4.216,3.704
				c-3.194,0-4.783-2.284-4.783-4.8s1.59-4.8,4.783-4.8c1.916,0,3.818,1.045,4.074,2.981H151.728z"/>
			<path fill="#82BC00" d="M154.282,16.284h0.965v5.704c-0.014,2.142,1.107,2.955,2.967,2.955c1.874,0,2.995-0.813,2.981-2.955
				v-5.704h0.965v5.897c0,1.897-1.122,3.51-3.946,3.51c-2.81,0-3.932-1.613-3.932-3.51V16.284z"/>
			<path fill="#82BC00" d="M164.243,16.284h4.641c1.675,0,3.08,0.735,3.08,2.4c0,1.161-0.667,2.116-1.973,2.348v0.026
				c1.32,0.155,1.704,0.981,1.774,2.078c0.043,0.632,0.043,1.897,0.468,2.361h-1.064c-0.241-0.361-0.241-1.045-0.27-1.432
				c-0.085-1.29-0.199-2.723-2.03-2.658h-3.662v4.091h-0.965V16.284z M165.209,20.658h3.605c1.178,0,2.186-0.671,2.186-1.794
				c0-1.122-0.738-1.832-2.186-1.832h-3.605V20.658z"/>
			<path fill="#82BC00" d="M173.88,16.284h0.965v9.213h-0.965V16.284z"/>
			<path fill="#82BC00" d="M175.973,16.284h8.034v0.748h-3.535v8.465h-0.965v-8.465h-3.534V16.284z"/>
			<path fill="#82BC00" d="M188.522,21.704l-3.989-5.42h1.15l3.336,4.671l3.321-4.671h1.15l-4.003,5.42v3.794h-0.965V21.704z"/>
		</g>
		<g>
			<path fill="#A6A6A8" d="M127.128,27.877h0.435v2.972h-0.435V27.877z"/>
			<path fill="#A6A6A8" d="M130.825,27.877h0.463l1.722,2.41h0.009v-2.41h0.412v2.972h-0.476l-1.708-2.385h-0.009v2.385h-0.412
				V27.877z"/>
			<path fill="#A6A6A8" d="M137.432,28.21h-1.09v-0.333h2.614v0.333h-1.09v2.639h-0.435V28.21z"/>
			<path fill="#A6A6A8" d="M141.87,27.877h2.257v0.333h-1.822v0.945h1.699v0.333h-1.699v1.028h1.836v0.333h-2.271V27.877z"/>
			<path fill="#A6A6A8" d="M147.183,27.877h1.539c0.614,0,0.994,0.304,0.994,0.778c0,0.358-0.174,0.654-0.568,0.753v0.008
				c0.38,0.067,0.458,0.321,0.49,0.612c0.028,0.291,0.009,0.616,0.193,0.82h-0.485c-0.124-0.121-0.055-0.441-0.119-0.733
				c-0.046-0.292-0.124-0.537-0.545-0.537h-1.062v1.269h-0.435V27.877z M148.524,29.247c0.408,0,0.756-0.096,0.756-0.529
				c0-0.292-0.174-0.508-0.581-0.508h-1.081v1.037H148.524z"/>
			<path fill="#A6A6A8" d="M152.879,27.877h0.463l1.722,2.41h0.009v-2.41h0.412v2.972h-0.476l-1.708-2.385h-0.009v2.385h-0.412
				V27.877z"/>
			<path fill="#A6A6A8" d="M159.652,27.877h0.481l1.278,2.972h-0.481l-0.357-0.895h-1.383l-0.366,0.895h-0.449L159.652,27.877z
				 M159.327,29.621h1.108l-0.545-1.386h-0.009L159.327,29.621z"/>
			<path fill="#A6A6A8" d="M164.673,28.21h-1.09v-0.333h2.614v0.333h-1.09v2.639h-0.435V28.21z"/>
			<path fill="#A6A6A8" d="M169.12,27.877h0.435v2.972h-0.435V27.877z"/>
			<path fill="#A6A6A8" d="M174.21,27.806c1.039,0,1.566,0.749,1.566,1.557s-0.527,1.557-1.566,1.557
				c-1.039,0-1.566-0.749-1.566-1.557S173.171,27.806,174.21,27.806z M174.21,30.587c0.797,0,1.131-0.625,1.131-1.224
				c0-0.599-0.334-1.224-1.131-1.224c-0.796,0-1.131,0.625-1.131,1.224C173.079,29.963,173.414,30.587,174.21,30.587z"/>
			<path fill="#A6A6A8" d="M178.856,27.877h0.463l1.722,2.41h0.009v-2.41h0.412v2.972h-0.476l-1.708-2.385h-0.009v2.385h-0.412
				V27.877z"/>
			<path fill="#A6A6A8" d="M185.63,27.877h0.481l1.278,2.972h-0.481l-0.357-0.895h-1.383l-0.366,0.895h-0.449L185.63,27.877z
				 M185.305,29.621h1.108l-0.545-1.386h-0.009L185.305,29.621z"/>
			<path fill="#A6A6A8" d="M190.282,27.877h0.435v2.639h1.731v0.333h-2.166V27.877z"/>
		</g>
		<g>
			
				<circle fill="none" stroke="#96BD0D" stroke-width="0.4163" stroke-linecap="round" stroke-linejoin="round" cx="177.098" cy="9.203" r="5.381"/>
			
				<circle fill="none" stroke="#96BD0D" stroke-width="0.4163" stroke-linecap="round" stroke-linejoin="round" cx="177.098" cy="9.203" r="4.553"/>
			
				<line fill="none" stroke="#96BD0D" stroke-width="0.4163" stroke-linecap="round" stroke-linejoin="round" x1="170.643" y1="9.203" x2="173.07" y2="9.203"/>
			
				<line fill="none" stroke="#96BD0D" stroke-width="0.4163" stroke-linecap="round" stroke-linejoin="round" x1="177.098" y1="15.658" x2="177.098" y2="13.232"/>
			
				<line fill="none" stroke="#96BD0D" stroke-width="0.4163" stroke-linecap="round" stroke-linejoin="round" x1="183.553" y1="9.203" x2="181.127" y2="9.203"/>
			
				<line fill="none" stroke="#96BD0D" stroke-width="0.4163" stroke-linecap="round" stroke-linejoin="round" x1="177.098" y1="2.749" x2="177.098" y2="5.175"/>
		</g>
	</g>
	<g>
		<path fill="#55565A" d="M124.028,36.898h1.007l0.841,3.213h0.017l0.808-3.213h0.957l0.774,3.213h0.017l0.874-3.213h0.966
			l-1.349,4.304h-0.974l-0.799-3.197h-0.017l-0.791,3.197h-0.999L124.028,36.898z"/>
		<path fill="#55565A" d="M130.589,36.898h1.007l0.841,3.213h0.017l0.808-3.213h0.957l0.774,3.213h0.017l0.874-3.213h0.966
			l-1.349,4.304h-0.974l-0.799-3.197h-0.017l-0.791,3.197h-0.999L130.589,36.898z"/>
		<path fill="#55565A" d="M137.149,36.898h1.007l0.841,3.213h0.017l0.808-3.213h0.957l0.774,3.213h0.017l0.874-3.213h0.966
			l-1.349,4.304h-0.974l-0.799-3.197h-0.017l-0.791,3.197h-0.999L137.149,36.898z"/>
		<path fill="#55565A" d="M143.718,40.078h1.157v1.124h-1.157V40.078z"/>
		<path fill="#55565A" d="M149.645,40.244c0,0.233,0.05,0.325,0.225,0.325c0.058,0,0.133,0,0.233-0.017v0.658
			c-0.141,0.05-0.441,0.108-0.599,0.108c-0.383,0-0.658-0.133-0.733-0.524c-0.375,0.366-0.982,0.524-1.49,0.524
			c-0.774,0-1.474-0.416-1.474-1.257c0-1.074,0.857-1.249,1.657-1.34c0.683-0.125,1.29-0.05,1.29-0.608
			c0-0.491-0.508-0.583-0.891-0.583c-0.533,0-0.908,0.216-0.949,0.683h-0.949c0.066-1.107,1.007-1.432,1.956-1.432
			c0.841,0,1.723,0.341,1.723,1.249V40.244z M148.696,39.045c-0.291,0.191-0.749,0.183-1.166,0.258
			c-0.408,0.066-0.774,0.216-0.774,0.716c0,0.424,0.541,0.549,0.874,0.549c0.416,0,1.066-0.217,1.066-0.816V39.045z"/>
		<path fill="#55565A" d="M151.468,39.819c0.05,0.55,0.466,0.749,0.974,0.749c0.358,0,0.982-0.075,0.957-0.566
			c-0.025-0.499-0.716-0.558-1.407-0.716c-0.699-0.15-1.382-0.4-1.382-1.274c0-0.941,1.016-1.232,1.798-1.232
			c0.882,0,1.682,0.366,1.798,1.324h-0.991c-0.083-0.449-0.458-0.574-0.874-0.574c-0.275,0-0.783,0.066-0.783,0.441
			c0,0.466,0.699,0.533,1.399,0.691c0.691,0.158,1.39,0.408,1.39,1.257c0,1.024-1.032,1.398-1.923,1.398
			c-1.082,0-1.89-0.483-1.906-1.499H151.468z"/>
		<path fill="#55565A" d="M155.182,35.257h0.949v0.899h-0.949V35.257z M155.182,36.898h0.949v4.304h-0.949V36.898z"/>
		<path fill="#55565A" d="M157.155,38.488h2.423v0.899h-2.423V38.488z"/>
		<path fill="#55565A" d="M160.568,36.898h0.899v0.599h0.025c0.283-0.424,0.641-0.716,1.324-0.716c0.524,0,1.016,0.225,1.207,0.716
			c0.317-0.441,0.724-0.716,1.349-0.716c0.907,0,1.44,0.4,1.44,1.449v2.972h-0.949v-2.514c0-0.683-0.042-1.157-0.783-1.157
			c-0.641,0-0.915,0.424-0.915,1.149v2.523h-0.949v-2.764c0-0.591-0.183-0.907-0.758-0.907c-0.491,0-0.941,0.4-0.941,1.116v2.556
			h-0.949V36.898z"/>
		<path fill="#55565A" d="M171.498,40.244c0,0.233,0.05,0.325,0.225,0.325c0.058,0,0.133,0,0.233-0.017v0.658
			c-0.141,0.05-0.441,0.108-0.599,0.108c-0.383,0-0.658-0.133-0.733-0.524c-0.375,0.366-0.983,0.524-1.49,0.524
			c-0.774,0-1.473-0.416-1.473-1.257c0-1.074,0.857-1.249,1.656-1.34c0.683-0.125,1.29-0.05,1.29-0.608
			c0-0.491-0.508-0.583-0.891-0.583c-0.533,0-0.907,0.216-0.949,0.683h-0.949c0.067-1.107,1.008-1.432,1.956-1.432
			c0.841,0,1.723,0.341,1.723,1.249V40.244z M170.549,39.045c-0.292,0.191-0.749,0.183-1.165,0.258
			c-0.408,0.066-0.774,0.216-0.774,0.716c0,0.424,0.541,0.549,0.874,0.549c0.416,0,1.066-0.217,1.066-0.816V39.045z"/>
		<path fill="#55565A" d="M176.585,40.977c0,1.29-0.758,1.931-2.114,1.931c-0.866,0-1.84-0.333-1.923-1.34h0.949
			c0.117,0.541,0.55,0.633,1.033,0.633c0.766,0,1.107-0.391,1.107-1.099v-0.658h-0.017c-0.267,0.474-0.758,0.758-1.291,0.758
			c-1.365,0-1.931-1.032-1.931-2.264c0-1.157,0.724-2.156,1.948-2.156c0.541,0,1.032,0.225,1.274,0.708h0.017v-0.591h0.949V40.977z
			 M175.636,38.954c0-0.741-0.333-1.424-1.157-1.424c-0.841,0-1.132,0.783-1.132,1.499c0,0.708,0.341,1.424,1.132,1.424
			C175.32,40.452,175.636,39.686,175.636,38.954z"/>
		<path fill="#55565A" d="M177.701,40.078h1.157v1.124h-1.157V40.078z"/>
		<path fill="#55565A" d="M182.929,38.338c-0.075-0.524-0.458-0.807-0.982-0.807c-0.491,0-1.182,0.258-1.182,1.565
			c0,0.716,0.317,1.474,1.141,1.474c0.549,0,0.932-0.366,1.024-0.982h0.949c-0.175,1.116-0.866,1.731-1.973,1.731
			c-1.349,0-2.089-0.957-2.089-2.223c0-1.299,0.708-2.314,2.123-2.314c0.999,0,1.848,0.5,1.94,1.557H182.929z"/>
		<path fill="#55565A" d="M184.536,39.045c0-1.315,0.791-2.264,2.173-2.264c1.382,0,2.173,0.949,2.173,2.264
			c0,1.324-0.791,2.273-2.173,2.273C185.327,41.318,184.536,40.369,184.536,39.045z M187.932,39.045
			c0-0.741-0.375-1.515-1.224-1.515c-0.849,0-1.224,0.774-1.224,1.515c0,0.749,0.375,1.524,1.224,1.524
			C187.558,40.569,187.932,39.794,187.932,39.045z"/>
		<path fill="#55565A" d="M189.755,36.898h0.899v0.599h0.025c0.283-0.424,0.641-0.716,1.324-0.716c0.524,0,1.016,0.225,1.207,0.716
			c0.316-0.441,0.724-0.716,1.349-0.716c0.907,0,1.44,0.4,1.44,1.449v2.972h-0.949v-2.514c0-0.683-0.042-1.157-0.783-1.157
			c-0.641,0-0.915,0.424-0.915,1.149v2.523h-0.949v-2.764c0-0.591-0.183-0.907-0.758-0.907c-0.491,0-0.941,0.4-0.941,1.116v2.556
			h-0.949V36.898z"/>
	</g>
</g>
</svg>
